<?xml version="1.0" encoding="utf-8"?>
<!-- Generator: Adobe Illustrator 16.0.0, SVG Export Plug-In . SVG Version: 6.00 Build 0)  -->
<!DOCTYPE svg PUBLIC "-//W3C//DTD SVG 1.1//EN" "http://www.w3.org/Graphics/SVG/1.1/DTD/svg11.dtd">
<svg version="1.1" id="Layer_1" xmlns="http://www.w3.org/2000/svg" xmlns:xlink="http://www.w3.org/1999/xlink" x="0px" y="0px"
	 width="589.61px" height="243.78px" viewBox="0 0 589.61 243.78" enable-background="new 0 0 589.61 243.78" xml:space="preserve">
<path fill="#CF3D2B" d="M80,117.667c0,0-34,38,0,81h22.333c0,0-43.667-34.333-20.333-79.333L80,117.667z"/>
<path fill="#CF3D2B" d="M76.917,147c0,0,17.917-1.25,25.417-21.833l1.916,0.917c0,0-2.416,18.749-26.083,28.749L76.917,147z"/>
<path fill="#CF3D2B" d="M43.167,137c0,0,6.333,19.167,19.833,25.167V169c0,0-21.5-15.499-21.167-30.166L43.167,137z"/>
<path fill="#CF3D2B" d="M100.333,142.417v-3.667c0,0,8.75,1.833,14.333-1.75l2.167,0.583
	C116.833,137.583,110.667,144.584,100.333,142.417z"/>
<path fill="#CF3D2B" d="M65.417,136.333c-0.25,0-3.917-5.083-4.25-16.75l2.5-0.583c0,0,2.25,12.117,4.75,12.666L65.417,136.333z"/>
<path fill="#CF3D2B" d="M97.167,77c0,0-1.167-23.167,17.333-22.333C114.5,54.667,119.667,76.167,97.167,77z"/>
<path fill="#CF3D2B" d="M123.333,71.833c0,0,0.666-22.5,22.833-19.667C146.167,52.167,147.333,74.667,123.333,71.833z"/>
<path fill="#CF3D2B" d="M142.833,82.333c0,0,4.167-14.173,14-10.253C156.833,72.08,157,83.167,142.833,82.333z"/>
<path fill="#CF3D2B" d="M133,97.167c0,0,9.5-12.167,19.833-5.167C152.833,92,146.167,104.833,133,97.167z"/>
<path fill="#CF3D2B" d="M134.754,113.833c0,0,10.412-18.5,26.246-7.833C161,105.999,153.509,127.499,134.754,113.833z"/>
<path fill="#CF3D2B" d="M73,87.689c-1.358,0.719-17.333-27.5,8.167-37.833C81.167,49.856,101,72.856,73,87.689z"/>
<path fill="#CF3D2B" d="M116.625,48.499c0,0-6-11.499,3.625-16.124C120.25,32.375,128.375,43.123,116.625,48.499z"/>
<path fill="#CF3D2B" d="M79.625,34.482c0,0-6.5-8.375,1.625-15.75C81.25,18.732,90.5,26.607,79.625,34.482z"/>
<path fill="#CF3D2B" d="M66.816,39.732c0,0-9.066-5-3.191-15.375C63.625,24.357,73.758,29.732,66.816,39.732z"/>
<path fill="#CF3D2B" d="M48.375,31.232c0,0-10.125,15.75,8.25,27C56.625,58.232,71.25,41.357,48.375,31.232z"/>
<path fill="#CF3D2B" d="M29.333,43.856c0,0-0.833,13.167,10.333,13C39.667,56.856,43.667,44.356,29.333,43.856z"/>
<path fill="#CF3D2B" d="M29.319,62.688c0,0-4.319,18.5,14.514,18.333C43.833,81.021,48.805,64.854,29.319,62.688z"/>
<path fill="#CF3D2B" d="M12.667,67.179c0,0,0.112,12.958,11.667,12.675C24.333,79.854,27,68.171,12.667,67.179z"/>
<path fill="#CF3D2B" d="M67.875,101.375c0,0-6.125,9.583,3.875,16.292C71.75,117.667,79.75,107,67.875,101.375z"/>
<path fill="#CF3D2B" d="M121,138.5c0,0,14.375-2.375,17,10.75C138,149.25,121.5,152.625,121,138.5z"/>
<path fill="#CF3D2B" d="M116.25,149.603c0,0,11.625-0.728,11.125,10.397C127.375,160,115.125,161.955,116.25,149.603z"/>
<path fill="#CF3D2B" d="M100.875,148.25c0,0-2.208,8.5,7.708,10.375C108.583,158.625,111.875,149.625,100.875,148.25z"/>
<path fill="#CF3D2B" d="M92.625,156.75c0,0-3.625,11,6.875,14C99.5,170.75,104.134,160.011,92.625,156.75z"/>
<path fill="#CF3D2B" d="M11,88.857c0,0-2.751,25.291,23.75,22.021C34.75,110.877,37.25,90.107,11,88.857z"/>
<path fill="#CF3D2B" d="M19.833,115.667c0,0-7.167,4.838-13.5-4.498C6.333,111.169,17.167,105.834,19.833,115.667z"/>
<path fill="#CF3D2B" d="M15.5,138.332c0,0,8-8.668,15,0C30.5,138.332,26.333,146.664,15.5,138.332z"/>
<path fill="#CF3D2B" d="M28.892,153c0,0-0.998-11.311,7.754-10.965C36.646,142.035,40.617,151,28.892,153z"/>
<path fill="#CF3D2B" d="M24.53,117.667c0,0,2.79,20.964,27.885,16.813C52.415,134.479,52.06,112.583,24.53,117.667z"/>
<path fill="none" stroke="#5D100C" stroke-miterlimit="10" d="M104.25,101.375c0,0-15.21,15.334-12.23,33.104"/>
<path fill="none" stroke="#5D100C" stroke-miterlimit="10" d="M48.974,114.447c0,0,1.359,23.989,12.192,29.521"/>
<path fill="none" stroke="#5D100C" stroke-miterlimit="10" d="M104.855,122.643c0,0,20.43-3.149,24.663,0.604"/>
<path fill="#CF3D2B" d="M56.25,77c0,0-26.75,12.75-8.5,38C47.75,115,72.818,105.475,56.25,77z"/>
<path fill="#CF3D2B" d="M93.667,120c0,0-23.443-8.428-10.055-32.297C83.612,87.703,108.667,100.333,93.667,120z"/>
<path fill="#CF3D2B" d="M113.014,120.951c0,0,2.709-17.93,15.672-14.646C128.686,106.304,132.109,125.035,113.014,120.951z"/>
<path fill="#CF3D2B" d="M102.334,103.852c0,0,0.092-29.884,33.254-23.993C135.588,79.859,134.418,111.453,102.334,103.852z"/>
<path fill="#CF3D2B" d="M125,123.247c0,0,19.352-4.997,21.176,13.753C146.176,137,127.5,144.494,125,123.247z"/>
<path fill="#CF3D2B" d="M104.125,24.357c0,0-16.819,3.777-11.875,27.018C92.25,51.375,114.875,43.964,104.125,24.357z"/>
<g>
	<rect x="148.176" y="114.093" fill="none" width="548.824" height="89.314"/>
	<path fill="#451E14" d="M274.355,104.187c-0.601,1.5-1.74,2.851-3.42,4.05c-2.221,1.68-4.77,2.52-7.65,2.52
		c-1.921,0-6.675-1.38-14.265-4.14c-7.591-2.759-13.696-4.14-18.315-4.14c-5.94,0-11.88,2.011-17.82,6.03
		c-5.94,4.021-9.751,8.491-11.43,13.41c6.24,1.26,12.18,3.781,17.82,7.56c0.12,0.18,0.18,0.359,0.18,0.54
		c0,0.481-0.36,0.72-1.08,0.72c-0.241,0-0.511-0.059-0.81-0.18c-4.801-3.24-10.35-5.49-16.65-6.75c-0.18,0.841-0.27,1.65-0.27,2.43
		c0,1.561,0.389,3.301,1.17,5.221c0.12,0.42-0.031,0.66-0.45,0.72c-0.42,0.061-0.841-0.091-1.26-0.454c-1.201-2-1.8-4.09-1.8-6.271
		c0-0.547,0-1.121,0-1.728v-0.362c-1.792-0.242-3.524-0.365-5.196-0.365c-9.198,0-17.292,2.585-24.28,7.757
		c-6.69,4.99-10.034,10.462-10.034,16.415c0,6.073,3,10.673,9,13.799c5.099,2.706,11.849,4.059,20.25,4.059
		c16.859,0,29.88-7.499,39.06-22.499h-13.05c-7.02,0-11.67,1.498-13.95,4.495c-0.36,0.304-0.81,0.334-1.35,0.094
		c-0.601-0.18-0.871-0.479-0.81-0.899c0.959-1.439,2.459-2.76,4.5-3.96c3-1.739,6.419-2.64,10.26-2.7c2.579,0,8.04-0.09,16.38-0.27
		c2.279-4.153,4.59-8.336,6.93-12.549c2.34-4.213,4.32-7.162,5.94-8.846c2.1-2.228,4.71-4.184,7.83-5.869
		c2.34-1.323,4.08-2.075,5.22-2.257c0.779-0.12,1.17,0.061,1.17,0.54c0,0.481-0.391,0.871-1.17,1.17c-2.94,1.26-6,4.081-9.18,8.46
		c-1.021,1.44-2.461,4.14-4.32,8.101c-2.88,6.119-4.621,9.779-5.22,10.979l17.73-0.45c1.319,0.121,1.98,0.391,1.98,0.811
		c0,0.24-0.121,0.51-0.36,0.81c-0.54,0.899-0.9,1.411-1.08,1.53c-0.36,0.301-0.931,0.449-1.71,0.449c-0.54,0-6.66,0.091-18.36,0.271
		c-1.381,2.521-2.7,4.561-3.96,6.12c-3.721,4.68-9.121,8.73-16.2,12.15c-8.521,4.14-17.491,6.21-26.91,6.21
		c-10.201,0-18.315-1.904-24.345-5.716c-6.03-3.809-9.045-8.804-9.045-14.984c0-6.301,3.479-12,10.44-17.1
		c7.38-5.459,16.14-8.19,26.28-8.19c2.82,0,5.549,0.211,8.19,0.63c1.679-5.7,6.21-10.769,13.59-15.21
		c8.159-4.979,17.429-7.47,27.81-7.47c3.78,0,9.194,1.156,16.245,3.465c7.05,2.311,11.055,3.465,12.015,3.465
		c1.8,0,3.27-0.959,4.41-2.88c0.419-0.239,0.779-0.27,1.08-0.09C274.445,103.077,274.536,103.527,274.355,104.187z"/>
	<path fill="#451E14" d="M284.885,117.507c0,1.741-0.81,4.171-2.43,7.29c-1.501,2.88-3.33,5.611-5.49,8.189
		c-3.721,4.561-7.771,8.251-12.15,11.07c-5.161,11.58-7.74,18.121-7.74,19.62c0,0.899,0.419,1.35,1.26,1.35
		c1.26,0,2.909-0.688,4.95-2.069c1.74-1.14,2.91-2.13,3.51-2.971c0.9,0.121,1.35,0.481,1.35,1.08c-0.841,1.08-2.04,2.16-3.6,3.24
		c-2.34,1.561-4.65,2.34-6.93,2.34c-3.181,0-4.77-1.409-4.77-4.229c0-2.22,1.649-7.2,4.95-14.94c2.939-6.959,5.67-12.659,8.189-17.1
		c2.399-4.26,5.01-7.92,7.83-10.98c3.24-3.479,5.999-5.22,8.28-5.22C283.954,114.177,284.885,115.288,284.885,117.507z
		 M281.645,117.417c0-0.659-0.27-0.99-0.81-0.99c-0.72,0-2.16,1.516-4.32,4.545c-2.16,3.03-3.991,6.226-5.49,9.585l-4.59,9.99
		c3.78-3.119,6.931-6.66,9.45-10.62C279.724,123.928,281.645,119.757,281.645,117.417z"/>
	<path fill="#451E14" d="M297.846,153.866c-1.021,1.021-2.16,1.53-3.42,1.53c-0.181,0-0.45,0-0.811,0
		c-1.741,3.156-3.96,5.819-6.66,7.992c-2.699,2.172-5.19,3.258-7.47,3.258c-4.621,0-6.93-2.309-6.93-6.93
		c0-4.979,1.979-9.766,5.939-14.355s8.399-6.885,13.32-6.885c0.84,0,1.26,0.18,1.26,0.54c0,0.601-0.42,0.899-1.26,0.899
		c-3.361,0-6.75,2.941-10.17,8.82c-3.12,5.4-4.68,9.932-4.68,13.59c0,1.922,0.899,2.881,2.699,2.881c1.62,0,3.495-1.11,5.625-3.33
		s3.945-4.829,5.445-7.83c-1.921-1.44-2.88-3.45-2.88-6.03c0-2.279,0.509-4.05,1.53-5.31c0.899-1.08,1.89-1.621,2.97-1.621
		c2.579,0,3.87,1.711,3.87,5.131c0,2.4-0.63,4.92-1.891,7.56c0.42,0.061,0.66,0.09,0.721,0.09c0.72,0,1.47-0.329,2.25-0.989
		C297.904,152.998,298.084,153.326,297.846,153.866z M293.256,145.767c0-2.039-0.421-3.06-1.261-3.06c-1.08,0-1.62,1.68-1.62,5.04
		c0,2.159,0.39,3.721,1.17,4.68C292.685,149.787,293.256,147.566,293.256,145.767z"/>
	<path fill="#451E14" d="M315.305,159.087c-0.83,1.439-1.956,2.88-3.378,4.319c-2.192,2.102-4.267,3.15-6.221,3.15
		c-1.306,0-2.416-0.419-3.335-1.26c-0.918-0.84-1.376-1.92-1.376-3.24c0-1.56,1.679-5.31,5.04-11.25
		c2.759-4.859,4.14-7.561,4.14-8.1c0-0.779-0.36-1.17-1.08-1.17c-0.841,0-1.71,0.66-2.61,1.979c-1.62,2.28-2.67,3.66-3.149,4.14
		c-0.061,0.061-0.15,0.091-0.271,0.091c-0.301,0-0.615-0.136-0.944-0.405c-0.331-0.271-0.466-0.554-0.405-0.855
		c1.679-2.16,2.64-3.539,2.88-4.14c-0.9-1.8-1.35-3.39-1.35-4.771c0-2.938,1.079-4.41,3.239-4.41c1.98,0,2.971,1.051,2.971,3.15
		c0,1.5-0.181,2.551-0.54,3.15l0.27,0.27c1.92-0.72,3.209-1.08,3.87-1.08c1.499,0,2.25,1.078,2.25,3.229
		c0,1.316-0.54,3.02-1.62,5.112c-0.061,0.18-1.17,2.214-3.33,6.099c-1.141,1.975-2.25,3.933-3.33,5.876s-1.62,3.332-1.62,4.169
		c0,0.897,0.354,1.346,1.061,1.346c1.119,0,2.652-0.946,4.598-2.842c1.296-1.184,2.445-2.457,3.446-3.818
		C315.219,158.007,315.484,158.427,315.305,159.087z"/>
	<path fill="#451E14" d="M347.794,139.744c0,0.182-0.18,0.544-0.54,1.086c-0.121,0.184-1.71,3.809-4.77,10.878
		c-2.7,6.224-4.05,10-4.05,11.329c0,0.906,0.359,1.359,1.08,1.359c1.379,0,3.658-1.919,6.84-5.76c0.239-0.06,0.495,0.031,0.765,0.27
		c0.271,0.241,0.374,0.511,0.315,0.811c-3.24,4.621-6.602,6.93-10.08,6.93c-2.821,0-4.23-1.409-4.23-4.229
		c0-0.959,0.479-2.729,1.44-5.311c-4.921,6.36-8.852,9.54-11.79,9.54c-3.061,0-4.59-1.901-4.59-5.706
		c0-5.314,2.609-10.387,7.83-15.219c5.04-4.649,10.229-6.976,15.569-6.976c2.7,0,4.649,0.182,5.851,0.545
		C347.673,139.412,347.794,139.563,347.794,139.744z M340.145,142.719c0-1.088-0.421-1.633-1.261-1.633
		c-2.461,0-5.775,2.903-9.944,8.708c-4.171,5.806-6.255,10.13-6.255,12.97c0,1.089,0.479,1.633,1.439,1.633
		c1.56,0,4.71-2.992,9.45-8.979c2.16-2.782,3.794-5.291,4.905-7.528C339.589,145.652,340.145,143.929,340.145,142.719z"/>
	<path fill="#451E14" d="M479.912,111.027c0,6.18-4.02,12-12.06,17.459c-7.74,5.161-17.16,8.672-28.26,10.53
		c4.5,4.801,8.189,8.581,11.069,11.34c9.239,8.881,15.24,13.32,18,13.32c1.68,0,3.15-0.329,4.41-0.99c0.9,0.36,1.08,0.931,0.54,1.71
		c-2.162,1.44-4.834,2.16-8.017,2.16c-5.165,0-10.54-2.543-16.126-7.629c-6.6-5.999-11.909-11.309-15.929-15.93
		c-1.619,2.091-3.209,4.002-4.769,5.733c-5.278,5.972-12.116,10.631-20.513,13.975c-7.079,2.808-13.707,4.211-19.883,4.211
		c-5.578,0-10.048-1.258-13.406-3.774c-3.539-2.576-5.309-6.143-5.309-10.696c0-10.007,5.52-19.415,16.561-28.224
		c9.3-7.429,21.24-13.601,35.82-18.515c13.198-4.373,24.6-6.562,34.199-6.562C472.022,99.146,479.912,103.106,479.912,111.027z
		 M472.623,111.117c0-2.7-1.261-4.95-3.78-6.75c-2.94-2.1-7.2-3.15-12.78-3.15c-8.581,0-19.26,2.397-32.04,7.19
		c-13.68,5.152-25.051,11.444-34.11,18.874c-10.561,8.748-15.84,17.556-15.84,26.423c0,3.774,1.319,6.637,3.96,8.583
		c2.64,1.947,6.18,2.921,10.62,2.921c6.359,0,12.975-1.929,19.846-5.784c6.869-3.856,12.703-9.044,17.505-15.56
		c0.72-0.957,1.62-2.211,2.699-3.767c-0.841,0-1.619,0-2.34,0c-1.141,0-1.71-0.271-1.71-0.81c0-0.6,0.569-0.9,1.71-0.9
		c1.14,0,2.34-0.029,3.601-0.09c0.238-0.36,3.33-4.98,9.27-13.86c3.18-4.739,5.79-8.249,7.83-10.53c2.579-3,5.009-5.4,7.29-7.2
		c1.739-1.319,2.909-1.98,3.51-1.98c0.779,0,1.17,0.391,1.17,1.17c-1.68,1.381-3.45,3.33-5.31,5.85c-1.08,1.5-3.301,5.04-6.66,10.62
		c-3.6,6.12-6.66,11.041-9.18,14.76l0.09,0.09c9.239-1.859,17.22-5.131,23.939-9.811
		C469.052,122.308,472.623,116.876,472.623,111.117z"/>
	<path fill="#451E14" d="M502.142,153.866c-1.021,1.021-2.16,1.53-3.42,1.53c-0.181,0-0.45,0-0.811,0
		c-1.741,3.156-3.96,5.819-6.66,7.992c-2.699,2.172-5.19,3.258-7.47,3.258c-4.621,0-6.93-2.309-6.93-6.93
		c0-4.979,1.979-9.766,5.939-14.355s8.399-6.885,13.32-6.885c0.84,0,1.26,0.18,1.26,0.54c0,0.601-0.42,0.899-1.26,0.899
		c-3.361,0-6.75,2.941-10.17,8.82c-3.12,5.4-4.68,9.932-4.68,13.59c0,1.922,0.899,2.881,2.699,2.881c1.62,0,3.495-1.11,5.625-3.33
		s3.945-4.829,5.445-7.83c-1.921-1.44-2.88-3.45-2.88-6.03c0-2.279,0.509-4.05,1.53-5.31c0.899-1.08,1.89-1.621,2.97-1.621
		c2.579,0,3.87,1.711,3.87,5.131c0,2.4-0.63,4.92-1.891,7.56c0.42,0.061,0.66,0.09,0.721,0.09c0.72,0,1.47-0.329,2.25-0.989
		C502.2,152.998,502.38,153.326,502.142,153.866z M497.552,145.767c0-2.039-0.421-3.06-1.261-3.06c-1.08,0-1.62,1.68-1.62,5.04
		c0,2.159,0.39,3.721,1.17,4.68C496.98,149.787,497.552,147.566,497.552,145.767z"/>
	<path fill="#451E14" d="M529.5,153.866c-1.021,1.021-2.16,1.53-3.42,1.53c-0.181,0-0.45,0-0.811,0
		c-1.741,3.156-3.96,5.819-6.66,7.992c-2.699,2.172-5.19,3.258-7.47,3.258c-4.621,0-6.93-2.309-6.93-6.93
		c0-4.979,1.979-9.766,5.939-14.355s8.399-6.885,13.32-6.885c0.84,0,1.26,0.18,1.26,0.54c0,0.601-0.42,0.899-1.26,0.899
		c-3.361,0-6.75,2.941-10.17,8.82c-3.12,5.4-4.68,9.932-4.68,13.59c0,1.922,0.899,2.881,2.699,2.881c1.62,0,3.495-1.11,5.625-3.33
		s3.945-4.829,5.445-7.83c-1.921-1.44-2.88-3.45-2.88-6.03c0-2.279,0.509-4.05,1.53-5.31c0.899-1.08,1.89-1.621,2.97-1.621
		c2.579,0,3.87,1.711,3.87,5.131c0,2.4-0.63,4.92-1.891,7.56c0.42,0.061,0.66,0.09,0.721,0.09c0.72,0,1.47-0.329,2.25-0.989
		C529.559,152.998,529.738,153.326,529.5,153.866z M524.91,145.767c0-2.039-0.421-3.06-1.261-3.06c-1.08,0-1.62,1.68-1.62,5.04
		c0,2.159,0.39,3.721,1.17,4.68C524.339,149.787,524.91,147.566,524.91,145.767z"/>
	<path fill="#451E14" d="M571.349,139.826c0-0.18-0.42,0.571-1.26,2.25c-1.26,2.521-2.94,6.151-5.04,10.891
		c-2.641,5.939-3.96,9.359-3.96,10.26s0.54,1.35,1.62,1.35c2.16,0,4.35-1.919,6.57-5.76c1.08-0.359,1.649-0.18,1.71,0.54
		c-0.841,1.501-1.98,2.94-3.42,4.32c-2.041,1.979-3.991,2.97-5.851,2.97c-3.42,0-5.13-1.35-5.13-4.05c0-1.92,0.93-5.04,2.79-9.36
		c1.26-2.999,2.399-5.369,3.42-7.109l-0.27-0.45c-1.501,0.844-4.41,4.068-8.73,9.672c-2.221,2.953-4.29,6.177-6.21,9.671
		c-0.359,0.785-1.8,1.326-4.319,1.627c-0.842,0.12-1.261-0.031-1.261-0.451c0-0.301,1.38-3.344,4.141-9.13
		c2.999-6.207,4.68-9.793,5.04-10.757l-0.36-0.452c-1.44,0.787-4.351,4.024-8.73,9.715c-2.82,3.631-5.1,6.688-6.84,9.169
		c-0.18,0.363-0.72,0.773-1.62,1.226c-0.899,0.454-1.71,0.681-2.43,0.681s-1.08-0.362-1.08-1.091c0-0.425,1.649-4.004,4.95-10.737
		c2.939-6.064,4.41-9.855,4.41-11.373c0-1.152-0.421-1.729-1.26-1.729c-0.121,0-1.171,0.359-3.15,1.08
		c-0.24,0-0.436-0.199-0.585-0.598c-0.15-0.399-0.166-0.691-0.045-0.877c2.16-1.656,4.529-2.486,7.109-2.486
		c2.399,0,3.601,1.057,3.601,3.169c0,1.933-1.562,6.036-4.68,12.312l0.359,0.09c1.739-2.427,4.141-5.22,7.2-8.377
		c3.06-3.155,5.25-5.144,6.57-5.963c1.318-0.819,2.79-1.23,4.41-1.23c0.839,0,1.26,0.244,1.26,0.73c0-0.061-0.421,0.761-1.26,2.463
		l-5.131,10.487c5.16-6.419,9.3-10.56,12.42-12.42c1.319-0.839,2.64-1.261,3.961-1.261
		C570.989,138.836,571.349,139.167,571.349,139.826z"/>
</g>
<g>
	<rect x="116.833" y="180.667" fill="none" width="284.333" height="72.113"/>
	<path fill="#451E14" d="M127.753,181.325c0,0.44-0.18,1.04-0.54,1.8c-0.44,0.921-1.04,1.811-1.8,2.67
		c-0.96,1.061-2.27,2.13-3.93,3.21c-0.26,0.601-0.52,1.2-0.78,1.801c1.2-1.28,2.229-1.92,3.09-1.92c1.12,0,1.68,0.6,1.68,1.8
		c0,1.54-0.67,3.16-2.01,4.859c-1.4,1.761-2.79,2.641-4.17,2.641c-0.66,0-1.17-0.17-1.53-0.511c-0.36-0.34-0.54-0.76-0.54-1.26
		c0-1.279,0.55-3.25,1.65-5.91c1.1-2.659,2.33-4.959,3.69-6.899c1.56-2.24,2.89-3.36,3.99-3.36
		C127.353,180.245,127.753,180.605,127.753,181.325z M123.673,190.355c0-0.4-0.16-0.601-0.48-0.601c-0.3,0-0.79,0.32-1.47,0.96
		c-0.74,0.701-1.38,1.49-1.92,2.37c-0.761,2-1.14,3.24-1.14,3.721c0,0.52,0.24,0.779,0.72,0.779c0.8,0,1.72-0.919,2.76-2.76
		C123.164,193.046,123.673,191.556,123.673,190.355z M126.613,181.418c0-0.322-0.13-0.482-0.39-0.482
		c-0.32,0-0.775,0.412-1.365,1.235s-1.165,1.858-1.725,3.104c-0.3,0.623-0.67,1.437-1.11,2.44c1.12-0.662,2.08-1.557,2.88-2.682
		C126.043,183.446,126.613,182.241,126.613,181.418z"/>
	<path fill="#451E14" d="M135.043,189.425c-0.101,0.221-0.95,2.521-2.55,6.9c0.56-0.399,0.94-0.739,1.14-1.02
		c0.24,0,0.41,0.13,0.51,0.39c-0.34,0.4-1.01,0.93-2.01,1.59l-0.21,0.601c-0.6,1.6-1.51,3.109-2.73,4.529c-1.4,1.6-2.7,2.4-3.9,2.4
		c-0.84,0-1.26-0.42-1.26-1.26c0-0.48,0.28-1.076,0.84-1.785c0.561-0.71,1.26-1.355,2.1-1.936c0.56-0.38,1.6-1.04,3.12-1.979
		l0.93-2.311c-0.42,0.54-0.971,1.08-1.65,1.62c-0.84,0.681-1.49,1.021-1.95,1.021c-0.4,0-0.735-0.14-1.005-0.42
		c-0.27-0.28-0.405-0.62-0.405-1.021c0-0.58,0.485-1.72,1.455-3.42c1.05-1.84,1.576-2.899,1.576-3.18c0-0.32-0.132-0.48-0.396-0.48
		c-0.224,0-0.629,0.16-1.218,0.48c-0.223-0.061-0.365-0.2-0.426-0.42c0.439-0.56,1.18-0.84,2.22-0.84c0.94,0,1.41,0.41,1.41,1.229
		c0,0.44-0.545,1.67-1.635,3.69c-1.09,2.02-1.635,3.14-1.635,3.359c0,0.221,0.1,0.33,0.3,0.33c0.6,0,1.47-0.649,2.61-1.95
		c0.979-1.159,1.629-2.109,1.95-2.85l1.23-3c0.18-0.38,0.36-0.59,0.54-0.63c0.28-0.061,0.48-0.09,0.6-0.09
		c0.34,0,0.51,0.09,0.51,0.27C135.103,189.285,135.083,189.346,135.043,189.425z M129.733,198.785
		c-0.987,0.604-1.621,1.016-1.903,1.237c-0.645,0.543-1.208,1.136-1.692,1.779c-0.563,0.745-0.845,1.338-0.845,1.78
		c0,0.362,0.161,0.543,0.483,0.543c0.523,0,1.147-0.478,1.873-1.433s1.339-2.047,1.843-3.273L129.733,198.785z"/>
	<path fill="#451E14" d="M176.923,181.546c0,2.524-1.4,4.89-4.2,7.094c-2.72,2.124-5.52,3.186-8.4,3.186c-0.32,0-0.62,0-0.9,0
		c-1.62,3.492-3.81,6.465-6.57,8.919c-2.88,2.574-5.62,3.861-8.22,3.861c-1.4,0-2.42-0.29-3.06-0.87c-0.12-0.3,0.02-0.46,0.42-0.48
		c0.76,0.44,1.56,0.66,2.4,0.66c1.58,0,3.175-0.56,4.785-1.68c1.61-1.12,3.115-2.69,4.515-4.71c0.96-1.399,2.14-3.46,3.54-6.18
		c-1.96-0.74-2.94-2.09-2.94-4.051c0-2.18,1.03-4.039,3.09-5.58c1.459-1.1,2.839-1.749,4.14-1.949c0.16,0.02,0.27,0.08,0.33,0.18
		c0.06,0.08,0.04,0.16-0.06,0.24c-1.04,0.26-2.17,0.94-3.39,2.04c-1.76,1.56-2.64,3.34-2.64,5.34c0,1.601,0.59,2.66,1.77,3.18
		c0.72-1.359,1.43-2.729,2.13-4.109c0.78-1.46,1.44-2.61,1.98-3.45c0.98-1.52,1.91-2.771,2.79-3.75c0.82-0.94,1.38-1.41,1.68-1.41
		c0.3,0,0.45,0.08,0.45,0.239c-0.24,0.3-0.51,0.609-0.81,0.928c-0.9,1.098-2.92,5.078-6.06,11.943h0.27
		c2.62,0.04,5.14-1.171,7.56-3.631c2.299-2.34,3.45-4.59,3.45-6.75c0-2.939-1.99-4.409-5.97-4.409c-4.041,0-7.97,0.911-11.79,2.733
		c-3.581,1.703-6.5,3.937-8.76,6.7c-2.26,2.765-3.39,5.538-3.39,8.322c0,0.682,0.09,1.353,0.27,2.014c0.04,0.26-0.07,0.39-0.33,0.39
		c-0.101,0-0.19-0.02-0.27-0.06c-0.3-0.661-0.45-1.782-0.45-3.364c0-3.305,1.28-6.37,3.84-9.194c2.3-2.523,5.33-4.556,9.09-6.099
		c3.62-1.462,7.189-2.192,10.71-2.192C173.923,175.596,176.923,177.579,176.923,181.546z"/>
	<path fill="#451E14" d="M179.443,190.205c0,1.301-0.75,2.471-2.25,3.51c-1.2,0.801-2.3,1.251-3.3,1.351
		c-0.24,0.641-0.36,1.13-0.36,1.47c0,0.7,0.37,1.05,1.11,1.05c0.6,0,1.28-0.27,2.04-0.81c0.6-0.439,1.06-0.88,1.38-1.32
		c0.26-0.14,0.42-0.05,0.48,0.271c-0.34,0.479-0.81,0.95-1.41,1.41c-0.94,0.68-1.86,1.02-2.76,1.02c-1.54,0-2.31-0.76-2.31-2.28
		c0-1.54,0.67-3.095,2.01-4.665c1.339-1.569,2.6-2.354,3.78-2.354C178.913,188.855,179.443,189.306,179.443,190.205z
		 M178.183,190.025c0-0.38-0.139-0.57-0.417-0.57c-0.417,0-1.013,0.561-1.787,1.681c-0.715,1-1.33,2.09-1.846,3.27
		c0.893-0.04,1.792-0.56,2.695-1.56S178.183,190.905,178.183,190.025z"/>
	<path fill="#451E14" d="M190.603,181.806c0,0.58-0.27,1.39-0.81,2.43c-0.5,0.96-1.11,1.87-1.83,2.729
		c-1.24,1.521-2.59,2.751-4.05,3.69c-1.721,3.86-2.58,6.04-2.58,6.54c0,0.3,0.14,0.45,0.42,0.45c0.42,0,0.97-0.229,1.65-0.69
		c0.58-0.38,0.97-0.71,1.17-0.99c0.3,0.041,0.45,0.161,0.45,0.36c-0.28,0.36-0.68,0.72-1.2,1.08c-0.78,0.521-1.55,0.78-2.31,0.78
		c-1.06,0-1.59-0.47-1.59-1.41c0-0.74,0.55-2.4,1.65-4.98c0.98-2.319,1.89-4.22,2.73-5.699c0.8-1.42,1.67-2.641,2.61-3.66
		c1.08-1.16,2-1.74,2.76-1.74C190.292,180.695,190.603,181.065,190.603,181.806z M189.523,181.775c0-0.22-0.09-0.33-0.27-0.33
		c-0.24,0-0.72,0.505-1.44,1.515c-0.72,1.011-1.331,2.075-1.83,3.195l-1.53,3.33c1.26-1.04,2.31-2.22,3.15-3.54
		C188.883,183.945,189.523,182.556,189.523,181.775z"/>
	<path fill="#451E14" d="M193.813,190.205c0,1.301-0.75,2.471-2.25,3.51c-1.2,0.801-2.3,1.251-3.3,1.351
		c-0.24,0.641-0.36,1.13-0.36,1.47c0,0.7,0.37,1.05,1.11,1.05c0.6,0,1.28-0.27,2.04-0.81c0.6-0.439,1.06-0.88,1.38-1.32
		c0.26-0.14,0.42-0.05,0.48,0.271c-0.34,0.479-0.81,0.95-1.41,1.41c-0.94,0.68-1.86,1.02-2.76,1.02c-1.54,0-2.31-0.76-2.31-2.28
		c0-1.54,0.67-3.095,2.01-4.665c1.339-1.569,2.6-2.354,3.78-2.354C193.283,188.855,193.813,189.306,193.813,190.205z
		 M192.553,190.025c0-0.38-0.139-0.57-0.417-0.57c-0.417,0-1.013,0.561-1.787,1.681c-0.715,1-1.33,2.09-1.846,3.27
		c0.893-0.04,1.792-0.56,2.695-1.56S192.553,190.905,192.553,190.025z"/>
	<path fill="#451E14" d="M205.393,181.957c0,1.201-0.857,2.753-2.571,4.654c-1.495,1.682-2.89,2.863-4.185,3.544
		c-0.504,1.198-1.027,2.487-1.571,3.865c0.599-0.821,1.397-1.742,2.395-2.763c0.998-1.021,1.717-1.667,2.156-1.938
		c0.439-0.27,0.878-0.405,1.317-0.405c0.239,0,0.359,0.11,0.359,0.33c0-0.06-0.14,0.19-0.42,0.75c-0.42,0.84-0.99,2.051-1.71,3.63
		c-0.86,1.98-1.29,3.12-1.29,3.42c0,0.301,0.169,0.45,0.51,0.45c0.74,0,1.48-0.64,2.22-1.92c0.36-0.12,0.55-0.06,0.57,0.18
		c-0.3,0.501-0.68,0.98-1.14,1.44c-0.68,0.66-1.34,0.99-1.98,0.99c-1.121,0-1.68-0.45-1.68-1.351c0-0.64,0.31-1.68,0.93-3.12
		c0.42-0.999,0.799-1.789,1.14-2.369l-0.09-0.15c-0.16,0.101-0.57,0.502-1.23,1.205c-0.7,0.784-1.26,1.456-1.68,2.019
		c-0.82,1.125-1.38,2.1-1.68,2.923c-0.101,0.262-0.66,0.543-1.68,0.844c-0.12,0.04-0.2,0.02-0.24-0.061
		c-0.06-0.1-0.049-0.251,0.03-0.451l4.68-11.309c0.62-1.46,1.459-2.77,2.52-3.93c1.16-1.24,2.209-1.86,3.15-1.86
		C205.002,180.575,205.393,181.036,205.393,181.957z M204.223,181.806c0-0.32-0.12-0.48-0.36-0.48c-0.5,0-1.17,0.681-2.01,2.04
		c-0.64,0.98-1.56,2.87-2.76,5.67c0.96-0.56,2.03-1.63,3.21-3.21C203.582,184.105,204.223,182.766,204.223,181.806z"/>
	<path fill="#451E14" d="M254.442,176.044c-1.2,2.136-3.11,5.479-5.73,10.029c-0.76,1.298-1.52,2.665-2.28,4.102
		c1.16,0.041,1.959,0.061,2.4,0.061c0.48,0,1.16-0.03,2.04-0.09c0.26,0.109,0.29,0.292,0.09,0.548
		c-0.62,0.275-2.291,0.412-5.01,0.412c-0.18,0.321-0.351,0.643-0.51,0.964c1.32,0.743,1.98,1.758,1.98,3.043
		c0,0.964-0.335,1.732-1.005,2.305c-0.67,0.572-1.415,0.858-2.235,0.858c-0.72,0-1.325-0.261-1.815-0.783s-0.735-1.195-0.735-2.019
		c0-0.703,0.46-1.908,1.38-3.615c-1.28-0.382-2.87-0.623-4.77-0.723c-5.98,4.8-11.74,7.199-17.28,7.199
		c-2.52,0-4.63-0.529-6.33-1.59c-1.94-1.2-2.91-2.88-2.91-5.04c0-2.52,1.38-4.649,4.14-6.39c2.54-1.6,5.38-2.4,8.52-2.4
		c3.32,0,5.94,0.66,7.86,1.98c0.06,0.06,0.09,0.12,0.09,0.18c0,0.341-0.18,0.46-0.54,0.36c-1.42-1.141-3.55-1.71-6.39-1.71
		c-3,0-5.77,0.87-8.31,2.609c-2.68,1.82-4.02,3.931-4.02,6.33c0,1.521,0.77,2.76,2.31,3.721c1.44,0.88,3.19,1.319,5.25,1.319
		c5.48,0,10.98-2.199,16.5-6.6l-2.88-0.061l-12.48-0.06c-0.56,0-0.89,0-0.99,0c-0.2-0.04-0.3-0.14-0.3-0.3
		c0-0.181,0.274-0.425,0.821-0.735c0.547-0.31,1.04-0.465,1.478-0.465c0.298,0,2.2,0.06,5.704,0.18
		c3.921,0.141,6.628,0.23,8.122,0.271h1.822c0.541-0.44,0.999-0.841,1.374-1.201c4.162-4.067,8.443-8.256,12.845-12.563
		c0.324-0.269,0.739-0.46,1.246-0.575c0.426-0.101,0.638-0.04,0.638,0.179C254.532,175.835,254.502,175.925,254.442,176.044z
		 M251.742,178.025l-0.24-0.03c-0.14,0.16-1.45,1.521-3.93,4.08c-2.64,2.721-4.469,4.591-5.489,5.61
		c-0.78,0.76-1.61,1.51-2.491,2.25l4.38,0.21c0.6-0.982,1.57-2.517,2.91-4.602L251.742,178.025z M246.103,194.563
		c0-0.672-0.34-1.265-1.02-1.778c-1.14,2.233-1.71,3.587-1.71,4.061c0,0.573,0.25,0.859,0.75,0.859c0.459,0,0.904-0.325,1.335-0.978
		C245.887,196.075,246.103,195.354,246.103,194.563z"/>
	<path fill="#451E14" d="M260.172,189.245c0-0.06-0.14,0.19-0.42,0.75c-0.42,0.84-0.98,2.051-1.68,3.63
		c-0.88,1.98-1.32,3.12-1.32,3.42c0,0.301,0.18,0.45,0.54,0.45c0.72,0,1.45-0.64,2.19-1.92c0.38-0.12,0.57-0.06,0.57,0.18
		c-0.28,0.501-0.65,0.98-1.11,1.44c-0.701,0.66-1.36,0.99-1.98,0.99c-1.14,0-1.71-0.45-1.71-1.351c0-0.64,0.31-1.68,0.93-3.12
		c0.44-0.999,0.83-1.789,1.17-2.369l-0.12-0.15c-0.48,0.28-1.45,1.35-2.91,3.21c-0.94,1.22-1.7,2.24-2.28,3.06
		c-0.28,0.421-0.69,0.631-1.23,0.631c-0.24,0-0.36-0.121-0.36-0.362c0-0.039,0.55-1.233,1.65-3.583
		c0.96-2.066,1.44-3.292,1.44-3.673c0-0.382-0.14-0.572-0.42-0.572c-0.1,0-0.49,0.12-1.17,0.36c-0.22-0.082-0.29-0.245-0.21-0.491
		c0.76-0.572,1.58-0.859,2.46-0.859c0.28,0,0.535,0.096,0.765,0.287c0.229,0.191,0.345,0.457,0.345,0.799
		c0,0.624-0.51,1.962-1.53,4.014l0.12,0.061c0.58-0.8,1.38-1.725,2.4-2.775c1.02-1.05,1.75-1.71,2.19-1.979
		c0.439-0.271,0.89-0.405,1.35-0.405C260.062,188.915,260.172,189.025,260.172,189.245z"/>
	<path fill="#451E14" d="M270.852,189.218c0,0.061-0.06,0.182-0.18,0.362c-0.041,0.061-0.57,1.27-1.59,3.626
		c-0.9,2.074-1.35,3.333-1.35,3.776c0,0.302,0.12,0.453,0.36,0.453c0.46,0,1.22-0.64,2.28-1.92c0.08-0.021,0.165,0.01,0.255,0.09
		c0.09,0.08,0.125,0.17,0.105,0.27c-1.08,1.541-2.2,2.311-3.36,2.311c-0.94,0-1.41-0.47-1.41-1.41c0-0.319,0.16-0.91,0.48-1.771
		c-1.64,2.12-2.95,3.181-3.93,3.181c-1.02,0-1.53-0.634-1.53-1.902c0-1.771,0.87-3.462,2.61-5.073c1.68-1.55,3.41-2.324,5.19-2.324
		c0.9,0,1.55,0.06,1.95,0.181C270.811,189.107,270.852,189.157,270.852,189.218z M268.301,190.21c0-0.363-0.14-0.545-0.42-0.545
		c-0.82,0-1.925,0.968-3.315,2.902c-1.391,1.936-2.085,3.377-2.085,4.323c0,0.363,0.16,0.545,0.48,0.545
		c0.52,0,1.57-0.998,3.15-2.993c0.72-0.928,1.265-1.764,1.635-2.51C268.116,191.188,268.301,190.612,268.301,190.21z"/>
	<path fill="#451E14" d="M278.412,188.195c0,0.14-0.186,0.36-0.555,0.66c-0.371,0.3-0.555,0.65-0.555,1.05
		c0,0.34,0.085,0.74,0.255,1.2s0.255,0.97,0.255,1.53c0,1.56-0.495,2.87-1.485,3.93c-0.99,1.061-2.125,1.59-3.405,1.59
		c-1.24,0-1.86-0.57-1.86-1.71c0-0.54,0.14-0.979,0.42-1.32c0.28-0.34,0.59-0.51,0.93-0.51c0.68,0,1.02,0.351,1.02,1.05
		c0,0.4-0.14,0.721-0.42,0.96c-0.28,0.24-0.58,0.36-0.9,0.36c-0.18,0-0.26,0.06-0.24,0.18c0.1,0.36,0.39,0.54,0.87,0.54
		c0.84,0,1.59-0.54,2.25-1.62c0.66-1.08,0.99-2.31,0.99-3.689c0-0.439-0.101-0.75-0.3-0.931c-0.12-0.14-0.25-0.14-0.39,0
		c-0.44,0.48-0.95,1.021-1.53,1.62c-0.1,0.041-0.21,0.011-0.33-0.09c-0.12-0.1-0.17-0.199-0.15-0.3c0.46-0.48,1.22-1.35,2.28-2.61
		c0.42-0.54,0.84-1.09,1.26-1.649c0.38-0.5,0.74-0.75,1.08-0.75C278.241,187.686,278.412,187.855,278.412,188.195z"/>
	<path fill="#451E14" d="M286.175,185.357l-1.917,4.036l1.382,0.002c0.28,0,0.421,0.13,0.421,0.39c0,0.261-0.139,0.39-0.417,0.39
		h-1.758l-2.803,5.972c-0.161,0.34-0.242,0.629-0.242,0.869c0,0.4,0.15,0.6,0.45,0.6c0.54,0,1.3-0.56,2.28-1.68
		c0.22-0.08,0.379-0.03,0.48,0.149c-0.96,1.38-2,2.07-3.12,2.07c-1.16,0-1.74-0.479-1.74-1.438c0-0.359,0.09-0.739,0.27-1.14
		l2.596-5.395l-1.272-0.008c-0.262,0-0.394-0.129-0.394-0.39c0-0.26,0.132-0.39,0.396-0.39h1.644l1.891-4.05
		c0.18-0.38,0.53-0.57,1.05-0.57c0.54,0,0.81,0.123,0.81,0.367C286.181,185.204,286.179,185.275,286.175,185.357z"/>
	<path fill="#451E14" d="M295.721,189.218c0,0.061-0.06,0.182-0.18,0.362c-0.041,0.061-0.57,1.27-1.59,3.626
		c-0.9,2.074-1.35,3.333-1.35,3.776c0,0.302,0.12,0.453,0.36,0.453c0.46,0,1.22-0.64,2.28-1.92c0.08-0.021,0.165,0.01,0.255,0.09
		c0.09,0.08,0.125,0.17,0.105,0.27c-1.08,1.541-2.2,2.311-3.36,2.311c-0.94,0-1.41-0.47-1.41-1.41c0-0.319,0.16-0.91,0.48-1.771
		c-1.64,2.12-2.95,3.181-3.93,3.181c-1.02,0-1.53-0.634-1.53-1.902c0-1.771,0.87-3.462,2.61-5.073c1.68-1.55,3.41-2.324,5.19-2.324
		c0.9,0,1.55,0.06,1.95,0.181C295.681,189.107,295.721,189.157,295.721,189.218z M293.171,190.21c0-0.363-0.14-0.545-0.42-0.545
		c-0.82,0-1.925,0.968-3.315,2.902c-1.391,1.936-2.085,3.377-2.085,4.323c0,0.363,0.16,0.545,0.48,0.545
		c0.52,0,1.57-0.998,3.15-2.993c0.72-0.928,1.265-1.764,1.635-2.51C292.986,191.188,293.171,190.612,293.171,190.21z"/>
	<path fill="#451E14" d="M303.281,188.195c0,0.14-0.186,0.36-0.557,0.66c-0.369,0.3-0.555,0.65-0.555,1.05
		c0,0.34,0.086,0.74,0.256,1.2s0.254,0.97,0.254,1.53c0,1.56-0.494,2.87-1.484,3.93c-0.99,1.061-2.125,1.59-3.404,1.59
		c-1.24,0-1.86-0.57-1.86-1.71c0-0.54,0.14-0.979,0.42-1.32c0.28-0.34,0.59-0.51,0.931-0.51c0.68,0,1.02,0.351,1.02,1.05
		c0,0.4-0.141,0.721-0.42,0.96c-0.281,0.24-0.58,0.36-0.9,0.36c-0.18,0-0.26,0.06-0.24,0.18c0.1,0.36,0.391,0.54,0.87,0.54
		c0.841,0,1.591-0.54,2.251-1.62s0.988-2.31,0.988-3.689c0-0.439-0.1-0.75-0.299-0.931c-0.121-0.14-0.25-0.14-0.391,0
		c-0.439,0.48-0.949,1.021-1.529,1.62c-0.101,0.041-0.211,0.011-0.33-0.09c-0.12-0.1-0.17-0.199-0.15-0.3
		c0.46-0.48,1.221-1.35,2.279-2.61c0.42-0.54,0.842-1.09,1.262-1.649c0.379-0.5,0.738-0.75,1.08-0.75
		C303.111,187.686,303.281,187.855,303.281,188.195z"/>
	<path fill="#451E14" d="M309.37,189.335c-0.66,1.32-1.311,2.641-1.95,3.96c-1.04,2.141-1.56,3.391-1.56,3.75
		c0,0.261,0.109,0.391,0.33,0.391c0.3,0,0.75-0.25,1.35-0.75c0.5-0.4,0.88-0.77,1.141-1.11c0.06-0.02,0.14,0.005,0.239,0.075
		c0.101,0.07,0.14,0.155,0.12,0.255c-0.28,0.4-0.67,0.82-1.17,1.26c-0.8,0.681-1.53,1.021-2.189,1.021c-1.001,0-1.5-0.48-1.5-1.44
		c0-0.399,0.469-1.64,1.409-3.72c0.38-0.78,0.82-1.729,1.32-2.851c0.08-0.22,0.01-0.329-0.21-0.329c-0.44,0-0.66-0.15-0.66-0.45
		s0.17-0.439,0.51-0.42c0.86,0.06,1.681,0.02,2.46-0.12c0.14-0.02,0.25,0.015,0.33,0.104S309.431,189.176,309.37,189.335z
		 M310.63,185.855c0,0.359-0.125,0.695-0.375,1.005c-0.25,0.311-0.555,0.465-0.915,0.465c-0.68,0-1.02-0.39-1.02-1.17
		c0-0.36,0.125-0.694,0.375-1.005c0.25-0.31,0.555-0.465,0.915-0.465C310.29,184.686,310.63,185.075,310.63,185.855z"/>
	<path fill="#451E14" d="M319.99,189.218c0,0.061-0.061,0.182-0.181,0.362c-0.04,0.061-0.569,1.27-1.59,3.626
		c-0.899,2.074-1.35,3.333-1.35,3.776c0,0.302,0.12,0.453,0.36,0.453c0.459,0,1.219-0.64,2.279-1.92
		c0.08-0.021,0.165,0.01,0.255,0.09c0.091,0.08,0.125,0.17,0.105,0.27c-1.08,1.541-2.2,2.311-3.36,2.311
		c-0.94,0-1.41-0.47-1.41-1.41c0-0.319,0.16-0.91,0.48-1.771c-1.641,2.12-2.95,3.181-3.93,3.181c-1.021,0-1.53-0.634-1.53-1.902
		c0-1.771,0.87-3.462,2.61-5.073c1.68-1.55,3.409-2.324,5.189-2.324c0.9,0,1.55,0.06,1.95,0.181
		C319.949,189.107,319.99,189.157,319.99,189.218z M317.44,190.21c0-0.363-0.141-0.545-0.421-0.545c-0.82,0-1.925,0.968-3.314,2.902
		c-1.391,1.936-2.085,3.377-2.085,4.323c0,0.363,0.16,0.545,0.479,0.545c0.521,0,1.57-0.998,3.15-2.993
		c0.72-0.928,1.265-1.764,1.635-2.51C317.255,191.188,317.44,190.612,317.44,190.21z"/>
</g>
<g>
</g>
<g>
</g>
<g>
</g>
<g>
</g>
<g>
</g>
<g>
</g>
</svg>
